<?xml version="1.0" encoding="UTF-8" standalone="no"?>
<svg xmlns="http://www.w3.org/2000/svg"
     xmlns:rdf="http://www.w3.org/1999/02/22-rdf-syntax-ns#"
     version="1.1"
     viewBox="0 0 780 372" height="100%" width="100%" x="0px" y="0px">

 <g fill-rule="nonzero" transform="translate(227.5,-129.37546)">
  <!-- path fill="#212121" d="m-227.5,501.38,780.01,0,0-371.51-780.01,0,0,371.51z"/ -->
  <path fill="#81893f" d="m-87.149,482.38-3.6033,7.4235,7.0856,0-3.4823-7.4235zm-2.824-3.41,6.1106,0,9.1303,17.58-5.7216,0-1.6558-3.4823-10.226,0-1.7031,3.4823-5.259,0,9.3248-17.58"/>
  <path fill="#81893f" d="m-65.629,478.97,5.1144,0,0,13.977,9.9333,0,0,3.6033-15.048,0,0-17.58"/>
  <path fill="#81893f" d="m-41.256,478.97,5.1131,0,0,13.977,9.9333,0,0,3.6033-15.046,0,0-17.58"/>
  <path fill="#81893f" d="m21.216,496.55-6.1841,0-3.5796-13.827-0.04857,0-3.7978,13.827-6.2814,0-4.9673-17.58,5.3563,0,2.8976,13.977,0.048575,0,3.9935-13.977,6.158,0,3.506,13.977,0.04987,0,3.1407-13.977,4.8201,0-5.1119,17.58"/>
  <path fill="#81893f" d="m35.433,478.97,15.095,0,0,3.607-9.9819,0,0,3.2641,9.4458,0,0,3.6008-9.4458,0,0,3.5048,10.201,0,0,3.6033-15.314,0,0-17.58"/>
  <path fill="#81893f" d="m66.571,493.29,4.5783,0c1.6071,0,2.8477-0.43389,2.8477-1.9924,0-1.4625-1.3391-2.0223-2.6046-2.0223h-4.8214v4.0147zm0-7.1317,3.1893,0c2.1919,0,3.4823-0.60719,3.4823-1.9712,0-1.46-1.0959-1.95-3.0684-1.95h-3.6033v3.9212zm-4.9673-7.1841,10.348,0c4.6743,0,6.5495,2.0959,6.5495,4.3339,0,1.9974-1.46,3.5559-3.7254,4.1157v0.0461c2.7268,0.24687,4.4798,1.9251,4.4798,4.1681,0,2.3839-1.7044,4.9162-7.2788,4.9162h-10.373v-17.58"/>
  <path fill="#81893f" d="m104.09,491.61,7.5953,0,0-3.117-7.5953,0,0,3.117z"/>
  <path fill="#81893f" d="m147.45,482.38-3.6045,7.4235,7.0843,0-3.4798-7.4235zm-2.8252-3.41,6.1118,0,9.1291,17.58-5.7216,0-1.6558-3.4823-10.225,0-1.7044,3.4823-5.259,0,9.3248-17.58"/>
  <path fill="#81893f" d="m168.97,478.97,5.1119,0,0,13.977,9.9333,0,0,3.6033-15.045,0,0-17.58"/>
  <path fill="#81893f" d="m193.34,478.97,5.1144,0,0,13.977,9.932,0,0,3.6033-15.046,0,0-17.58"/>
  <path fill="#81893f" d="m237.99,482.58-6.7664,0,0-3.607,18.648,0,0,3.607-6.7701,0,0,13.973-5.1119,0,0-13.973"/>
  <path fill="#81893f" d="m259.1,478.97,5.1131,0,0,6.9908,8.6428,0,0-6.9908,5.1144,0,0,17.58-5.1144,0,0-6.9871-8.6428,0,0,6.9871-5.1131,0,0-17.58"/>
  <path fill="#81893f" d="m289.02,478.97,15.098,0,0,3.607-9.9844,0,0,3.2641,9.4458,0,0,3.6008-9.4458,0,0,3.5048,10.203,0,0,3.6033-15.316,0,0-17.58"/>
  <path fill="#81893f" d="m335.47,482.58-6.7689,0,0-3.607,18.65,0,0,3.607-6.7689,0,0,13.973-5.1119,0,0-13.973"/>
  <path fill="#81893f" d="m356.24,496.55,5.1143,0,0-17.58-5.1143,0,0,17.58z"/>
  <path fill="#81893f" d="m371.87,478.97,7.8885,0,5.1867,13.05,5.476-13.05,7.6217,0,0,17.58-4.8214,0,0-14.317-0.0499,0-5.8163,14.317-5.259,0-5.8438-14.317-0.0499,0,0,14.317-4.3326,0,0-17.58"/>
  <path fill="#81893f" d="m409.05,478.97,15.095,0,0,3.607-9.9819,0,0,3.2641,9.447,0,0,3.6008-9.447,0,0,3.5048,10.201,0,0,3.6033-15.314,0,0-17.58"/>
  <path fill="#81893f" d="m-64.828,346.11v29.435c49.736-10.415,97.665-25.633,145.37-43.001-48.373,7.7788-96.337,13.131-145.37,13.566"/>
  <path fill="#f5f6ec" d="m-192.02,148.78c13.109,32.416,26.414,64.745,39.918,97-13.091,25.882-26.38,51.65-39.918,77.302,47.367,12.916,93.852,18.282,142.9,18.244,49.026-1.6969,97.052-7.9347,145.37-16.201v-144.87-29.435c-97.256,16.629-191.96,24.088-288.27-2.0398"/>
  <path fill="#81893f" d="m-160.62,150.59c-2.6046-6.2552-3.9075-9.3947-6.5133-15.692,81.941,21.712,162.8,21.105,246.61,12.527-80.691,12.931-159.35,18.646-240.1,3.1656"/>
  <path fill="#81893f" d="m-222.45,225.47s15.778-5.3525,35.24,0.22941c19.463,5.5857,25.683,18.13,25.683,18.13s-6.2203,10.747-25.683,5.1643c-19.461-5.5832-35.24-23.523-35.24-23.523"/>
  <path fill="#81893f" d="m-197.4,276.43s1.9001-11.908,10.852-18.306c8.9496-6.3998,17.168-1.9587,17.168-1.9587s2.4936,8.9096-6.4584,15.569c-8.9483,6.6567-21.562,4.6955-21.562,4.6955"/>
  <path fill="#81893f" d="m-197.4,192.13s1.8989,13.317,10.851,24.819c8.9496,11.504,17.166,10.952,17.166,10.952s2.4961-7.522-6.456-18.766c-8.9496-11.244-21.561-17.005-21.561-17.005"/>
  <path fill="#f5f6ec" d="m517.09,162c-139.79-38.084-277.49-3.3402-416.13,22.128,0,48.29-0.005,96.579,0,144.87-47.751,18.011-95.737,34.322-145.37,46.377,188.85-8.1952,372.42-90.083,561.5-39.074-13.113-32.416-26.411-64.746-39.92-96.996,13.09-25.884,26.382-51.653,39.92-77.306"/>
  <path fill="#81893f" d="m485.68,334.49c2.6071,6.2552,3.91,9.3897,6.517,15.687-165.69-39.03-327.98,16.81-493.22,28.92,162.79-16.64,321.91-75.93,486.7-44.61"/>
  <path fill="#81893f" d="m547.51,259.61s-15.78,5.3538-35.238-0.23066c-19.465-5.5832-25.688-18.132-25.688-18.132s6.2228-10.744,25.684-5.1593c19.463,5.5832,35.242,23.522,35.242,23.522"/>
  <path fill="#81893f" d="m522.47,208.65s-1.9051,11.909-10.855,18.309c-8.952,6.3998-17.166,1.96-17.166,1.96s-2.5023-8.9109,6.4497-15.57c8.9496-6.6579,21.571-4.6992,21.571-4.6992"/>
  <path fill="#81893f" d="m522.47,292.96s-1.9051-13.32-10.855-24.821c-8.952-11.504-17.168-10.951-17.168-10.951s-2.4998,7.5207,6.4522,18.767c8.9496,11.242,21.571,17.005,21.571,17.005"/>
  <path fill="#c7caa4" d="m506.6,327.14c-38.32-9.24-78.335-13.745-121.89-13.745-76.766,0-154.15,14.31-228.98,28.149-33.852,6.259-68.305,12.619-102.96,17.715,21.27-6.825,42.355-14.234,63.37-22.017v-149.55c11.265-2.1121,22.533-4.2678,33.54-6.3762,76.799-14.707,156.22-29.916,234.29-29.916,44.425,0,85.042,4.8014,123.89,14.661-11.964,22.765-24.153,46.413-36.288,70.408l-1.3066,2.5871,1.1196,2.6744c11.658,27.826,23.484,56.501,35.223,85.407zm10.491-165.14c-44.554-12.138-88.898-16.878-133.13-16.878-89.472,0-178.48,19.395-267.83,36.182v-0.00099c-5.0595,0.95131-10.12,1.8939-15.181,2.8252,0,48.29-0.005,96.579,0,144.87-47.751,18.011-95.737,34.322-145.37,46.377,2.3876-0.10349,4.7753-0.22069,7.1616-0.34661,0.77302-0.0411,1.5448-0.0886,2.3178-0.13341,1.6246-0.0911,3.2492-0.18328,4.8713-0.28427,0.88149-0.0561,1.763-0.1172,2.6445-0.17456,1.5248-0.10099,3.0484-0.20322,4.5708-0.3117,0.89894-0.0648,1.7966-0.13216,2.6956-0.20073,1.5199-0.11346,3.041-0.22941,4.5596-0.35285,0.87276-0.071,1.7455-0.14213,2.617-0.21569,1.5697-0.13092,3.1382-0.26682,4.7067-0.40646,0.81292-0.0723,1.6246-0.14463,2.4375-0.21944,1.6607-0.15336,3.3215-0.3117,4.9822-0.47378,0.71566-0.0686,1.4313-0.13715,2.147-0.20947,1.8278-0.18203,3.6556-0.37154,5.4834-0.5648,0.54735-0.0573,1.0947-0.11346,1.6408-0.17206,2.1707-0.23315,4.3414-0.47254,6.5108-0.72065,0.16832-0.0187,0.33788-0.0361,0.5062-0.0561,0.000997,0,0.002-0.00099,0.004-0.00099,123.85-14.169,245.92-50.855,369.26-50.855,43.929,0,87.988,4.6481,132.38,16.625-13.113-32.416-26.411-64.746-39.92-96.996,13.09-25.884,26.382-51.653,39.92-77.306"/>
  <path fill="#c7caa4" d="m-49.237,335.04-0.39399,0c-47.379,0-91.027-5.2453-133.16-16.019,11.893-22.631,24.082-46.281,36.287-70.411l1.3079-2.5871-1.1184-2.6744c-11.861-28.331-23.683-57-35.211-85.387,39.266,9.5542,80.08,14.212,124.34,14.212,40.787,0,85.067-3.9885,138.23-12.483v161.59c-49.246,7.992-90.967,12.389-130.28,13.756zm145.87-154.79v-29.435c-5.0072,0.85531-10.006,1.6794-15,2.4836-46.528,7.492-92.52,12.594-138.43,12.594-44.879,0-89.679-4.8663-134.84-17.117,13.109,32.416,26.414,64.745,39.918,97-13.091,25.882-26.38,51.65-39.918,77.302,47.203,12.871,93.535,18.244,142.39,18.244h0.50496c49.026-1.6969,97.052-7.9347,145.37-16.201v-144.87"/>
  <path fill="#c7caa4" d="m-187.21,229.11c14.781,4.2416,25.683,14.712,25.683,14.712s-6.2203-12.544-25.683-18.13c-19.461-5.5819-35.24-0.22941-35.24-0.22941s20.471-0.5885,35.24,3.6469"/>
  <path fill="#c7caa4" d="m-169.38,256.17s-8.2189-4.4411-17.168,1.9587c-8.952,6.3973-10.852,18.306-10.852,18.306s4.8738-10.617,10.852-14.889c8.9496-6.3986,17.168-5.375,17.168-5.375"/>
  <path fill="#c7caa4" d="m-175.84,212.55c4.8102,6.0408,6.3038,10.991,6.6667,14.295,0.33289-2.4263,0.33165-8.9221-6.6667-17.711-8.9496-11.244-21.561-17.005-21.561-17.005s13.942,10.85,21.561,20.421"/>
  <path fill="#c7caa4" d="m512.27,239.51c14.77,4.2366,35.242,20.106,35.242,20.106s-15.78-17.939-35.242-23.522c-19.461-5.5844-25.684,5.1593-25.684,5.1593s10.918-5.9797,25.684-1.743"/>
  <path fill="#c7caa4" d="m500.9,216.76c7.6042-5.6592,21.571-8.1167,21.571-8.1167s-12.621-1.9587-21.571,4.6992c-6.9746,5.1867-6.9946,11.722-6.6642,14.366,0.36032-3.1482,1.8502-7.3698,6.6642-10.948"/>
  <path fill="#c7caa4" d="m511.61,268.13c-8.952-11.504-17.168-10.951-17.168-10.951s8.2164,2.8627,17.168,14.367c6.0009,7.7127,10.855,21.405,10.855,21.405s-1.9051-13.32-10.855-24.821"/>
  <path fill="#81893f" d="m215.72,439.26c61.668-3.0597,123.64-4.7927,184.98,3.7117-61.545-6.0183-123.35-3.3576-184.98-0.13091-21.067,1.1583-21.067-2.4225,0-3.5808"/>
  <path fill="#81893f" d="m109.34,446.69c-61.673,3.0596-123.64,4.7802-184.98-3.7117,61.542,6.0208,123.36,3.3689,184.98,0.13091,21.07-1.1595,21.067,2.4213-0.001,3.5808"/>
  <path fill="#81893f" d="m173.85,449.26s-3.9237,0.43513-3.8601-2.7592c0.0648-3.1956,4.7167-1.8366,4.7167-1.8366-2.2492,1.8415-0.85656,4.5957-0.85656,4.5957zm0.57852,1.1022-1.1321,3.8663s-0.45134,0.16956-1.0099-0.67452c-0.55981-0.84284,2.142-3.1918,2.142-3.1918zm3.2005-8.6603c-0.13964-3.1444-0.19949-7.7588-10.658-11.977-10.453-4.2192-17.358,4.4374-17.358,4.4374-7.0656,12.387,11.161,18.422,11.161,18.422l0.43763,4.1905s0.65831,0.1546,1.6632,0.37404l0.37529-1.5311s0.0786,0.95006,0.0224,1.6158c0.46008,0.0997,0.9775,0.20697,1.5286,0.32293l0.39648-1.6582s0.0923,1.0847,0.015,1.7418c0.45633,0.0935,0.92388,0.18328,1.3989,0.27555l0.36781-1.5996s0.0959,1.0112,0.0399,1.677c0.53612,0.0997,1.0747,0.1945,1.6009,0.27803l0.43015-1.5972s0.0573,1.0037-0.0213,1.667c0.52241,0.0823,1.0224,0.15709,1.4887,0.21071l0.44136-1.6096s0.0562,0.99745-0.0249,1.662c0.49747,0.0499,0.93884,0.0798,1.3091,0.0886l0.4314-1.6046s0.0549,0.93385-0.0138,1.5959c0.36531-0.0274,0.59971-0.0985,0.65707-0.22942,0.6633-1.5361,0.18078-3.7192,0.18078-3.7192l1.3603-4.6306s-1.8029-4.668,1.0224-5.1044c1.6184-0.24437,2.3465-2.7928,1.7468-3.2978"/>
  <path fill="#c7caa4" d="m167.21,431.86c6.325,2.5547,9.053,5.2416,10.257,7.7002-0.44636-2.91-2.2031-6.4996-10.488-9.8398-10.453-4.2192-16.486,3.5372-17.358,4.4374-0.87276,0.89147-1.2468,2.7529-1.5136,3.9998,0.23066-0.52117,0.35534-0.85032,0.87401-1.6096,0.52366-0.75557,7.1741-9.1466,18.228-4.688"/>
  <path fill="#c7caa4" d="m177.63,441.7s-2.4998-1.0199-4.6568-1.2805c0,0,2.6058,0.44511,4.8214,2.3278,0.0848-0.4713,0.0399-0.879-0.16458-1.0473"/>
  <path fill="#100f0d" d="m-58.644,256.55c-0.12593,1.5074-0.18827,2.2654-0.3142,3.7728-0.50371,0-0.75556-0.001-1.2593-0.001-0.18827-1.5074-0.28178-2.263-0.47004-3.7703-2.4088-20.015-4.8164-40.03-7.2227-60.046-0.15834-0.002-12.249-0.31669-12.249-0.31669-2.4063,19.89-4.8152,39.778-7.224,59.667-0.18951,1.4987-0.28302,2.248-0.47129,3.7466-0.50371-0.0262-0.75432-0.0386-1.2555-0.0661-0.12717-1.5149-0.18951-2.2742-0.31669-3.789-2.2517-20.137-4.5022-40.272-6.7514-60.409-6.2814-0.43388-9.4221-0.69696-15.703-1.3378,5.1742,38.919,10.355,77.838,15.546,116.75,5.2765,0.36531,7.9147,0.51244,13.191,0.73935,2.6208-18.122,5.2353-36.246,7.8511-54.369,0.37653-2.6894,0.5673-4.0372,0.94383-6.729,0.25186,0.006,0.37778,0.0113,0.62964,0.0175,0.37653,2.7093,0.56231,4.0633,0.94009,6.7739,2.617,18.259,5.2328,36.52,7.8499,54.78,5.2777,0.0486,7.9172,0.0399,13.194-0.0324,5.1904-38.611,10.37-77.224,15.546-115.84-6.2814,0.24562-9.4208,0.32915-15.703,0.41518-2.248,20.012-4.4997,40.025-6.7514,60.039"/>
  <path fill="#c7caa4" d="m-113.7,192.23,0.26183,1.9724c5.173,38.919,10.353,77.838,15.545,116.75l0.17081,1.2705,1.278,0.0873c5.2964,0.36656,7.8935,0.51369,13.232,0.7431l1.4189,0.0598,0.20323-1.4039c2.5185-17.424,5.0333-34.846,7.5469-52.27l3.6332,25.349,3.9262,27.39,0.19076,1.3353,1.349,0.0125c2.1981,0.0212,3.9399,0.0311,5.6044,0.0311,2.2019,0,4.2691-0.0175,7.6254-0.0623l1.354-0.0186,0.18079-1.3428c5.1892-38.611,10.368-77.226,15.546-115.84l0.24687-1.8515-1.8652,0.0735c-6.3338,0.24687-9.4084,0.32791-15.664,0.41394l-1.384,0.0187-0.1546,1.3765-6.1617,54.792-0.06982,0.62216c-2.223-18.478-4.4461-36.954-6.6679-55.433l-0.16333-1.3565-1.3652-0.0262c-0.23689-0.005-12.239-0.31669-12.239-0.31669l-1.4276-0.0374-0.17206,1.4189c-2.2181,18.334-4.4374,36.667-6.6579,55.001l-0.17331-1.5435c-2.0223-18.099-4.0459-36.195-6.0669-54.293l-0.14588-1.3029-1.3066-0.0898c-6.4148-0.44386-9.4869-0.70569-15.652-1.3341l-1.9774-0.20323zm1.8178,1.7655c6.2814,0.64086,9.4221,0.90394,15.703,1.3378,2.2492,20.137,4.4997,40.272,6.7514,60.409,0.12717,1.5149,0.18951,2.2742,0.31669,3.789,0.50122,0.0274,0.75182,0.0399,1.2555,0.0661,0.18827-1.4986,0.28178-2.248,0.47129-3.7466,2.4088-19.889,4.8176-39.777,7.224-59.667,0,0,12.09,0.3142,12.249,0.31669,2.4063,20.016,4.8139,40.031,7.2227,60.046,0.18827,1.5074,0.28178,2.2629,0.47004,3.7703,0.50371,0,0.75556,0.001,1.2593,0.001,0.12593-1.5074,0.18827-2.2654,0.3142-3.7728,2.2517-20.014,4.5035-40.026,6.7514-60.039,6.2826-0.0861,9.4221-0.16957,15.703-0.41519-5.1767,38.612-10.356,77.226-15.546,115.84-3.0846,0.0424-5.2665,0.0636-7.603,0.0636-1.6595,0-3.3975-0.0113-5.5907-0.0311-2.617-18.259-5.2328-36.52-7.8499-54.78-0.37778-2.7106-0.56356-4.0646-0.94009-6.7739-0.25185-0.006-0.37778-0.0113-0.62964-0.0174-0.37653,2.6918-0.5673,4.0396-0.94383,6.729-2.6158,18.124-5.2303,36.247-7.8511,54.369-5.2765-0.22691-7.9147-0.37404-13.191-0.73935-5.1917-38.915-10.372-77.834-15.546-116.75"/>
  <path fill="#100f0d" d="m10.763,210.1c0-6.9721-0.002-10.459-0.002-17.433-15.514,1.6109-23.274,2.253-38.788,3.0522,0,38.475-0.002,76.95,0,115.42,15.514-0.7992,23.273-1.4401,38.788-3.0497v-17.434c-8.7289,0.90642-13.096,1.3029-21.827,1.965v-23.794c0-3.1706-0.000998-4.7541-0.000998-7.9234,6.2826-0.47753,9.4221-0.74933,15.705-1.3528v-18.531c-6.2826,0.60594-9.4221,0.87525-15.703,1.3528v-30.31c8.7314-0.66081,13.098-1.061,21.829-1.9662"/>
  <path fill="#c7caa4" d="m12.331,190.93-1.7318,0.17954c-15.091,1.566-22.802,2.2268-38.708,3.0459l-1.4887,0.0761v1.4924l-0.000998,38.475c0,25.649-0.000997,51.3,0.000998,76.949v1.6533l1.6508-0.0848c16.003-0.82414,23.742-1.4862,38.869-3.0559l1.4089-0.14712v-20.591l-1.7318,0.17954c-8.2551,0.8578-12.53,1.2505-20.096,1.8328v-22.1l-0.0009975-3.9623v-2.5061c5.3363-0.4102,8.4197-0.68076,14.286-1.2443l1.4201-0.13715v-21.687l-1.7218,0.16582c-5.6767,0.5486-8.7363,0.81666-13.983,1.2219v-27.16c7.613-0.58351,11.917-0.9775,20.421-1.859l1.4089-0.14587v-1.4164l-0.000997-8.7164-0.000998-8.7164v-1.7418zm-1.571,1.7418c0,6.9734,0.002,10.461,0.002,17.433-8.7314,0.90518-13.098,1.3054-21.829,1.9662v30.31c6.2814-0.47753,9.4208-0.74684,15.703-1.3528v18.531c-6.2826,0.60345-9.4221,0.87525-15.705,1.3528,0,3.1694,0.000997,4.7528,0.000997,7.9234v23.794c8.7301-0.66206,13.098-1.0585,21.827-1.965v17.434c-15.515,1.6096-23.274,2.2505-38.788,3.0497-0.002-38.474,0-76.949,0-115.42,15.514-0.79921,23.274-1.4413,38.788-3.0522"/>
  <path fill="#100f0d" d="m37.141,237.13c0-12.311-0.002-18.469-0.002-30.78,3.1407-0.41768,12.564-2.2118,12.564,13.648,0,15.863-9.4221,16.716-12.562,17.132zm0,51.037v-35.488c3.1394-0.41643,12.56-2.9986,12.56,16.001,0,19.004-9.4208,19.071-12.56,19.486zm18.374-46.718c8.1653-8.2875,10.296-15.044,10.521-25.49,0.42516-19.579-12.197-28.79-30.937-26.143-6.3624,0.8977-14.919,1.8303-14.919,1.8303,0,38.476,0.000998,76.95,0,115.42,8.3548-0.95879,12.532-1.4874,20.886-2.6258,18.227-2.7791,26.508-19.823,26.226-36.546-0.37903-22.54-11.777-26.45-11.777-26.45"/>
  <path fill="#c7caa4" d="m38.711,254.03c0.53737-0.0711,1.1321-0.13216,1.748-0.13216,1.8976,0,7.6728,0,7.6728,14.778,0,14.857-5.7328,17.109-9.4208,17.702v-32.348zm-0.002-46.303c0.46755-0.0499,0.97749-0.0873,1.5149-0.0873,2.1944,0,3.8613,0.63338,5.0994,1.9363,1.864,1.9625,2.8103,5.4672,2.8103,10.417,0,12.207-5.7453,14.608-9.4221,15.309l-0.000997-13.566-0.000997-14.009zm2.4662-19.931c-2.0136,0-4.1319,0.1546-6.2951,0.46007-6.2639,0.88523-14.785,1.8153-14.869,1.8253l-1.4002,0.15211v116.83l-0.000997,1.7605,1.7505-0.20074c8.2264-0.94258,12.332-1.4588,20.919-2.6295,19.456-2.9674,27.869-21.287,27.586-38.128-0.29923-17.718-7.2315-24.512-10.789-26.837,7.6579-8.3698,9.3286-15.62,9.5318-25.042,0.19201-8.8336-2.243-16.095-7.0394-20.997-4.6069-4.7067-11.312-7.1953-19.393-7.1953zm-4.0334,100.37c3.1394-0.41519,12.56-0.48252,12.56-19.486,0-14.214-5.2715-16.349-9.2426-16.348-1.3366,0-2.5273,0.24188-3.3177,0.34661v35.488m0-51.037c3.1394-0.41644,12.562-1.2692,12.562-17.132,0-12.099-5.4847-13.923-9.4794-13.923-1.2418,0-2.3402,0.17705-3.0846,0.27554,0,12.311,0.002,18.469,0.002,30.78m4.0334-47.759c15.334,0,25.239,9.2101,24.861,26.588-0.22442,10.446-2.3552,17.202-10.521,25.49,0,0,11.398,3.91,11.777,26.45,0.28178,16.723-7.9995,33.767-26.226,36.546-8.3548,1.1383-12.532,1.667-20.886,2.6258,0.000998-38.474,0-76.948,0-115.42,0,0,8.5568-0.93261,14.919-1.8303,2.1071-0.29799,4.1332-0.44511,6.0757-0.44511"/>
  <path fill="#100f0d" d="m151.46,255.1v-34.237c4.7104-0.91391,12.56-1.8141,12.56,14.676,0,16.489-7.8499,18.647-12.56,19.561zm28.893-23.355c0.69697-16.851-9.9545-33.064-28.893-27.685-6.7838,1.3166-10.176,1.9712-16.96,3.2704v115.42c6.7839-1.2979,10.174-1.9525,16.958-3.2679,0.004-16.228,0-32.456,0-48.684,1.8228-0.35285,2.7318-0.52865,4.5546-0.88274,2.9337,15.657,5.8625,31.317,8.795,46.975,6.7851-1.3191,10.176-1.9787,16.962-3.2878-3.6145-17.937-7.224-35.872-10.837-53.808,6.4372-5.648,8.9695-17.071,9.4221-28.051"/>
  <path fill="#c7caa4" d="m153.03,222.18c0.65956-0.0984,1.3378-0.16583,2.0211-0.16583h0.00099c2.157,0,3.7005,0.68948,4.8576,2.1719,1.6869,2.1582,2.541,5.9772,2.541,11.351,0,13.565-5.3949,16.553-9.4208,17.61v-30.967zm5.5483-20.742c-2.3951,0-4.9124,0.36656-7.4821,1.091-6.739,1.3066-10.132,1.9612-16.892,3.2566l-1.2755,0.24438v118.62l1.8652-0.35783c6.7864-1.2967,10.176-1.9512,16.963-3.2679l1.2705-0.24687v-1.2942c0.002-10.819,0.002-21.637,0.001-32.456v-14.933l1.7306-0.33539,4.5508,24.301,3.9536,21.12,0.29175,1.5535,1.551-0.30172,1.2244-0.2369c5.9934-1.1658,9.3722-1.8228,15.735-3.0497l1.5548-0.30048-0.31295-1.5523-6.5557-32.553-4.107-20.391c7.3237-7.1367,8.9608-20.854,9.2787-28.539,0.38401-9.3111-2.6033-18.222-7.9908-23.836-4.1007-4.274-9.4096-6.5332-15.354-6.5332zm-7.118,53.66c4.7104-0.91391,12.56-3.0721,12.56-19.561,0-12.722-4.6718-15.094-8.9695-15.094-1.273,0-2.5148,0.20822-3.5908,0.41768v34.237m7.118-52.089c14.455,0,22.379,14.128,21.775,28.734-0.45259,10.979-2.9848,22.403-9.4221,28.051,3.6132,17.936,7.2227,35.872,10.837,53.808-6.7851,1.3091-10.176,1.9687-16.962,3.2878-2.9325-15.657-5.8612-31.317-8.795-46.975-1.8228,0.35409-2.7317,0.52989-4.5546,0.88274,0,16.228,0.004,32.456,0,48.684-6.7838,1.3154-10.174,1.97-16.958,3.2679v-115.42c6.7839-1.2992,10.176-1.9537,16.96-3.2704,2.5223-0.71567,4.8974-1.0486,7.118-1.0486"/>
  <path fill="#100f0d" d="m208.15,259.43c6.2814-1.1695,9.4221-1.7468,15.703-2.8751v-18.532c-6.2814,1.1284-9.4221,1.7069-15.703,2.8776v-30.31c8.7314-1.6246,13.096-2.425,21.828-3.9648v-17.43c-15.516,2.7392-23.275,4.2017-38.792,7.1679,0,38.476-0.002,76.95,0,115.43,15.516-2.9662,23.275-4.4324,38.792-7.1716,0-6.9721,0.004-10.461,0.004-17.433-8.7314,1.541-13.1,2.3402-21.832,3.9661v-31.72"/>
  <path fill="#c7caa4" d="m231.54,187.33-1.844,0.32542c-15.393,2.7168-23.258,4.198-38.813,7.1716l-1.2755,0.24437v39.774c-0.001,25.649-0.002,51.298,0,76.949v1.8976l1.8652-0.35658c16.021-3.0622,23.515-4.4735,38.769-7.1666l1.2979-0.22816v-1.3179l0.001-8.7164,0.001-8.7164v-1.8714l-1.8428,0.32541c-8.0718,1.4238-12.428,2.2168-19.987,3.6232v-28.526c5.2952-0.98498,8.4184-1.5585,14.409-2.6345l1.2929-0.23315v-21.723l-1.8478,0.33165c-5.5882,1.0049-8.7052,1.576-13.854,2.5335v-27.114c8.0618-1.4987,12.437-2.2966,20.53-3.7242l1.2979-0.22942v-20.618zm-1.571,1.8715v17.43c-8.7314,1.5398-13.096,2.3402-21.828,3.9648v30.31c6.2814-1.1708,9.4221-1.7493,15.703-2.8776v18.532c-6.2814,1.1284-9.4221,1.7056-15.703,2.8751v31.72c8.7314-1.6258,13.1-2.425,21.832-3.9661,0,6.9721-0.004,10.461-0.004,17.433-15.516,2.7392-23.275,4.2055-38.792,7.1716-0.002-38.475,0-76.949,0-115.43,15.516-2.9662,23.275-4.4286,38.792-7.1679"/>
  <path fill="#100f0d" d="m256.36,232.33v-30.78c3.1407-0.50122,12.56-2.4163,12.56,13.443,0,15.862-9.4196,16.834-12.56,17.337zm0,51.039v-35.491c3.1407-0.50246,12.56-3.2018,12.56,15.798,0,19.003-9.4196,19.192-12.56,19.693zm18.37-46.93c8.1641-8.2501,10.299-14.889,10.517-25.345,0.40771-19.491-12.063-29.236-30.938-26.018-6.3699,1.086-14.918,2.4824-14.918,2.4824v115.42c8.3561-1.4301,12.533-2.1233,20.886-3.4324,18.106-2.9861,26.518-19.714,26.23-36.485-0.39025-22.531-11.777-26.625-11.777-26.625"/>
  <path fill="#c7caa4" d="m257.93,249.21c0.58974-0.0923,1.2493-0.17082,1.9338-0.17082,2.0734,0,3.5858,0.71317,4.764,2.2467,1.8054,2.3515,2.7205,6.5233,2.7205,12.398,0,14.826-5.7378,17.19-9.4184,17.867v-32.341zm0-46.301c0.53114-0.0685,1.1221-0.12218,1.738-0.12218,2.1333,0,3.7566,0.63462,4.9635,1.9375,1.8029,1.9475,2.7168,5.4061,2.7168,10.277,0,12.171-5.7552,14.686-9.4184,15.47v-27.563zm3.2055-20.002c-2.2592,0-4.6431,0.21071-7.0868,0.62715-6.2914,1.0722-14.821,2.4674-14.907,2.4811l-1.3166,0.2157v118.62l1.8353-0.31419c8.2488-1.4114,12.419-2.1046,20.865-3.4287,19.436-3.2055,27.842-21.426,27.556-38.064-0.30672-17.744-7.2576-24.628-10.799-26.991,7.714-8.3598,9.3373-15.329,9.538-24.92,0.18702-8.9334-2.2767-16.272-7.123-21.222-4.4885-4.582-10.906-7.0045-18.562-7.0045zm-4.7765,100.47c3.1407-0.50121,12.56-0.69073,12.56-19.693,0-13.993-5.1082-16.216-9.0555-16.216-1.4114,0-2.6769,0.28552-3.5048,0.41768v35.491m0-51.039c3.1407-0.50246,12.56-1.475,12.56-17.337,0-11.873-5.279-13.785-9.2513-13.785-1.3328,0-2.5198,0.2157-3.309,0.34163v30.78m4.7765-47.862c14.992,0,24.472,9.5916,24.116,26.624-0.21819,10.456-2.3527,17.095-10.517,25.345,0,0,11.387,4.0945,11.777,26.625,0.28801,16.771-8.1242,33.499-26.23,36.485-8.3536,1.3091-12.53,2.0024-20.886,3.4324v-115.42s8.5481-1.3964,14.918-2.4824c2.3814-0.40646,4.6593-0.60595,6.8225-0.60595"/>
  <path fill="#100f0d" d="m296.55,294.44c15.518-1.9201,23.277-2.7405,38.793-3.9337,0-6.9721-0.004-10.459-0.004-17.433-8.7314,0.67203-13.096,1.0772-21.828,1.9911v-31.72c6.2814-0.65831,9.4271-0.9563,15.708-1.4924v-18.531c-6.2814,0.53238-9.4271,0.83411-15.708,1.4899v-30.309c8.7314-0.91391,13.1-1.3154,21.832-1.9874v-17.429c-15.516,1.192-23.275,2.0074-38.793,3.9274v115.43"/>
  <path fill="#c7caa4" d="m336.91,173.39-1.6907,0.12967c-15.94,1.2256-23.684,2.0572-38.864,3.9349l-1.379,0.17081v118.59l1.7642-0.2182c15.192-1.8802,22.917-2.7105,38.719-3.9262l1.45-0.11096v-1.455l-0.002-8.7164-0.001-8.7164v-1.6956l-1.6907,0.12967c-7.9795,0.61467-12.25,0.99619-20.136,1.8141v-28.562c5.3924-0.55981,8.462-0.84782,14.271-1.3428l1.4376-0.12219v-21.684l-1.7031,0.14588c-5.6268,0.47753-8.6915,0.76304-14.005,1.3116v-27.15c7.9746-0.82788,12.241-1.2106,20.38-1.8365l1.45-0.11097v-20.58zm-1.5697,1.6956v17.429c-8.7314,0.67203-13.1,1.0735-21.832,1.9874v30.309c6.2814-0.65582,9.4271-0.95755,15.708-1.4899v18.531c-6.2814,0.53612-9.4271,0.83411-15.708,1.4924v31.72c8.7314-0.9139,13.096-1.3191,21.828-1.9911,0,6.9734,0.004,10.461,0.004,17.433-15.516,1.1932-23.275,2.0136-38.793,3.9337v-115.43c15.518-1.9201,23.277-2.7355,38.793-3.9274"/>
  <path fill="#100f0d" d="m361.72,173.55c-6.7851,0.26058-10.176,0.43513-16.962,0.86777v115.43c15.768-1.0049,23.651-1.3054,39.419-1.3229v-15.7c-8.9845,0.009-13.474,0.10473-22.457,0.4476v-99.718"/>
  <path fill="#c7caa4" d="m363.29,171.92-1.6321,0.0623c-6.7838,0.26183-10.12,0.4314-17,0.87027l-1.47,0.0935v118.57l1.6695-0.10723c15.296-0.97375,23.122-1.3017,39.32-1.3191l1.5685-0.00099v-18.84l-1.571,0.00099c-8.3473,0.009-12.752,0.0873-20.885,0.38776v-99.719zm-1.571,1.6321v99.718c8.9832-0.34287,13.473-0.43888,22.457-0.4476v15.7c-15.768,0.0174-23.651,0.31793-39.419,1.3229v-115.43c6.7851-0.43264,10.176-0.60719,16.962-0.86777"/>
  <path fill="#100f0d" d="m412.44,188.09c5.557,0.18577,6.7527,9.346,6.7527,17.041,6.6579-0.19699,9.9894-0.24312,16.647-0.20697,0.47005-15.056-6.0969-31.954-23.713-32.396-15.928-0.40022-22.141,13.791-22.141,26.354,0,12.406,7.6629,24.27,15.545,36.326,6.4597,9.8784,13.661,19.704,13.661,27.398,0,7.2227-1.8864,12.575-6.9098,12.32-7.0656-0.36032-8.0082-10.4-8.0082-19.978-6.6579,0.3915-9.9856,0.64086-16.645,1.2368-0.96503,16.22,5.7465,33.914,24.653,34.285,17.966,0.35036,23.557-11.893,23.557-27.284,0-12.406-7.9795-24.805-15.863-36.961-6.4771-9.9944-13.347-19.081-13.347-26.933,0-6.5968,1.4949-11.345,5.8101-11.201"/>
  <path fill="#c7caa4" d="m411.47,170.95,0,0c-7.5494-0.001-13.715,3.1868-17.832,9.2189-3.3689,4.9373-5.2241,11.583-5.2241,18.713,0,13.019,8.0332,25.304,15.803,37.185,0.76554,1.172,1.5423,2.344,2.3166,3.511,5.4498,8.2189,11.087,16.718,11.087,23.028,0,4.9074-0.86777,10.757-4.9984,10.757-0.0848,0-0.17331-0.002-0.26183-0.006-4.506-0.23066-6.517-5.9074-6.517-18.409v-1.6657l-1.6632,0.0973c-6.628,0.39025-9.9046,0.63338-16.691,1.2406l-1.3466,0.12094-0.0811,1.3503c-0.68699,11.522,2.3477,21.84,8.3224,28.307,4.5521,4.9274,10.564,7.497,17.867,7.6404,0.26183,0.005,0.52241,0.007,0.77925,0.007,15.949,0,24.38-9.9794,24.38-28.861,0-12.963-8.1928-25.598-16.116-37.816-0.9139-1.4126-1.839-2.8066-2.7492-4.1818-5.3201-8.0356-10.345-15.625-10.345-21.898,0-6.3924,1.3628-9.634,4.0484-9.634l0.13839,0.002c3.3252,0.11096,5.2341,5.7502,5.2341,15.472v1.6171l1.6171-0.0474c5.567-0.16458,8.7127-0.21819,12.942-0.21819,1.1184,0,2.3178,0.005,3.6506,0.0113l1.5311,0.009,0.0474-1.5298c0.34038-10.932-2.7866-20.718-8.5805-26.847-4.3364-4.5882-9.9432-6.9983-16.664-7.1666-0.23315-0.006-0.46506-0.009-0.69447-0.009zm0,1.5697c0.2157,0,0.43638,0.002,0.65582,0.009,17.616,0.44137,24.183,17.339,23.713,32.396-1.3366-0.007-2.5385-0.0113-3.6594-0.0113-4.4685,0-7.6666,0.0611-12.988,0.21819,0-7.6953-1.1957-16.856-6.7527-17.041-0.0648-0.002-0.12718-0.002-0.19076-0.002-4.1693,0-5.6193,4.7042-5.6193,11.204,0,7.8524,6.8699,16.939,13.347,26.933,7.8835,12.156,15.863,24.556,15.863,36.961,0,15.176-5.4336,27.29-22.809,27.29-0.24686,0-0.49747-0.002-0.74808-0.006-18.907-0.3703-25.618-18.065-24.653-34.285,6.6592-0.59598,9.9869-0.84534,16.645-1.2368,0,9.5779,0.94258,19.617,8.0082,19.978,0.11471,0.006,0.22817,0.009,0.34038,0.009,4.7678,0,6.5694-5.2715,6.5694-12.328,0-7.694-7.2015-17.52-13.661-27.398-7.8823-12.055-15.545-23.92-15.545-36.326,0-12.389,6.0408-26.364,21.485-26.362"/>
 </g>
</svg>
